<?xml version="1.0" standalone="no"?>
<!DOCTYPE svg PUBLIC "-//W3C//DTD SVG 20010904//EN"
 "http://www.w3.org/TR/2001/REC-SVG-20010904/DTD/svg10.dtd">
<svg version="1.0" xmlns="http://www.w3.org/2000/svg"
 width="16.000000pt" height="16.000000pt" viewBox="0 0 16.000000 16.000000"
 preserveAspectRatio="xMidYMid meet">
<metadata>
Created by potrace 1.11, written by Peter Selinger 2001-2013
</metadata>
<g transform="translate(0.000000,16.000000) scale(0.010000,-0.010000)"
fill="#000000" stroke="none">
<path d="M0 800 l0 -800 800 0 800 0 0 800 0 800 -800 0 -800 0 0 -800z m513
183 c4 -270 10 -446 17 -476 15 -61 64 -125 120 -157 40 -22 56 -25 155 -25
125 0 169 12 223 59 80 70 91 153 92 674 l0 352 96 0 95 0 -3 -452 c-4 -403
-6 -459 -22 -508 -49 -149 -120 -225 -261 -280 -52 -20 -78 -24 -200 -24 -118
-1 -151 2 -210 21 -126 40 -209 117 -258 240 -29 74 -37 201 -37 605 l0 398
94 0 93 0 6 -427z m362 -38 c28 -27 32 -57 11 -78 -12 -12 -12 -16 5 -30 26
-23 24 -63 -6 -92 -21 -22 -33 -25 -95 -25 l-70 0 0 125 0 125 65 0 c57 0 69
-3 90 -25z"/>
<path d="M760 901 c0 -24 5 -29 29 -33 40 -6 71 8 71 31 0 22 -19 31 -66 31
-31 0 -34 -3 -34 -29z"/>
<path d="M760 801 l0 -42 46 3 c87 6 84 60 -3 74 l-43 7 0 -42z"/>
</g>
</svg>
